<svg xmlns="http://www.w3.org/2000/svg" width="149" height="40" fill="none" viewBox="0 0 149 40">
  <path fill="#E4E7F1" d="M59.738 26.594V13.757h2.884v12.837h-2.884Zm-8.3 0V13.757h2.884v12.837h-2.884Zm2.374-5.187v-2.532h6.436v2.532h-6.436Zm15.769 5.522c-.82 0-1.547-.141-2.18-.422a4.658 4.658 0 0 1-1.565-1.126 5.404 5.404 0 0 1-.95-1.6 5.458 5.458 0 0 1-.316-1.83v-.35c0-.645.106-1.261.317-1.847a5.085 5.085 0 0 1 .95-1.6c.41-.47.92-.839 1.529-1.108.621-.282 1.325-.422 2.11-.422 1.031 0 1.899.234 2.602.703a4.508 4.508 0 0 1 1.636 1.811c.375.739.562 1.548.562 2.427v.95h-8.528v-1.6h6.823l-.915.738c0-.574-.082-1.067-.246-1.477-.164-.41-.41-.721-.738-.932-.317-.223-.715-.334-1.196-.334-.492 0-.909.111-1.248.334-.34.223-.598.55-.774.985-.176.422-.264.943-.264 1.565 0 .574.082 1.078.246 1.512.164.422.422.75.774.985.352.234.809.351 1.371.351.516 0 .938-.1 1.266-.299.329-.199.551-.445.669-.738H74.1a4.064 4.064 0 0 1-.826 1.723 4.19 4.19 0 0 1-1.547 1.178c-.622.282-1.337.423-2.146.423Zm6.384-.335v-9.636h2.233v4.15h-.158c0-.985.123-1.806.369-2.462.246-.657.615-1.149 1.108-1.477.492-.34 1.096-.51 1.81-.51h.124c.727 0 1.33.17 1.81.51.493.328.863.82 1.109 1.477.258.656.386 1.477.386 2.462h-.685c0-.985.123-1.806.369-2.462.258-.657.633-1.149 1.125-1.477.493-.34 1.096-.51 1.811-.51h.124c.726 0 1.336.17 1.828.51.504.328.885.82 1.143 1.477.258.656.387 1.477.387 2.462v5.486h-2.813V20.95c0-.528-.141-.956-.422-1.284-.27-.328-.657-.492-1.16-.492-.505 0-.903.17-1.197.51-.293.328-.44.767-.44 1.318v5.592h-2.83V20.95c0-.528-.14-.956-.422-1.284-.27-.328-.65-.492-1.143-.492-.516 0-.92.17-1.213.51-.293.328-.44.767-.44 1.318v5.592h-2.813Zm17.573 0v-9.636h2.813v9.636h-2.813Zm-1.284-7.561v-2.075h4.097v2.075h-4.097Zm2.374-3.025c-.528 0-.92-.135-1.178-.404-.246-.282-.37-.633-.37-1.055 0-.434.124-.786.37-1.056.258-.28.65-.422 1.178-.422.528 0 .914.141 1.16.422.258.27.387.622.387 1.056 0 .422-.129.773-.386 1.055-.247.27-.633.404-1.161.404Zm7.807 10.885c-1.372 0-2.444-.281-3.218-.844-.774-.562-1.184-1.354-1.23-2.374h2.496c.047.305.229.58.545.827.328.234.815.352 1.46.352.492 0 .896-.083 1.213-.247.328-.175.492-.422.492-.738a.765.765 0 0 0-.369-.668c-.246-.176-.686-.3-1.319-.37l-.756-.07c-1.16-.117-2.034-.44-2.62-.967-.574-.528-.862-1.202-.862-2.023 0-.68.17-1.248.51-1.705.34-.458.81-.803 1.407-1.038.61-.234 1.301-.352 2.075-.352 1.243 0 2.245.276 3.007.827.762.54 1.16 1.325 1.196 2.356h-2.497c-.047-.316-.211-.58-.493-.791-.281-.223-.697-.334-1.248-.334-.434 0-.78.082-1.038.246-.257.164-.386.387-.386.668 0 .27.111.475.334.616.222.14.586.24 1.09.299l.756.07c1.184.129 2.104.457 2.761.985.656.527.984 1.237.984 2.128 0 .644-.176 1.207-.527 1.688-.352.469-.85.832-1.495 1.09-.645.246-1.401.37-2.268.37Zm6.148-.299V16.87c0-1.114.317-1.94.95-2.48.633-.539 1.565-.809 2.796-.809h1.23v2.11h-1.353c-.317 0-.563.088-.739.264-.176.176-.264.422-.264.739v9.9h-2.62Zm-1.143-7.385V17.15h6.26v2.058h-6.26Zm11.85 7.72c-.821 0-1.548-.141-2.181-.422a4.662 4.662 0 0 1-1.565-1.126 5.416 5.416 0 0 1-.949-1.6 5.459 5.459 0 0 1-.317-1.83v-.35c0-.645.106-1.261.317-1.847a5.134 5.134 0 0 1 .949-1.6 4.336 4.336 0 0 1 1.53-1.108c.621-.282 1.325-.422 2.11-.422 1.032 0 1.899.234 2.603.703a4.507 4.507 0 0 1 1.635 1.811c.375.739.563 1.548.563 2.427v.95h-8.529v-1.6h6.823l-.914.738c0-.574-.083-1.067-.247-1.477-.164-.41-.41-.721-.738-.932-.317-.223-.715-.334-1.196-.334-.492 0-.908.111-1.248.334-.34.223-.598.55-.774.985-.176.422-.264.943-.264 1.565 0 .574.082 1.078.246 1.512.165.422.422.75.774.985.352.234.809.351 1.372.351.515 0 .937-.1 1.266-.299.328-.199.551-.445.668-.738h2.585a4.06 4.06 0 0 1-.827 1.723c-.41.504-.926.897-1.547 1.178-.621.282-1.336.423-2.145.423Zm6.383-.335v-9.636h2.233v4.132h-.053c0-1.36.288-2.409.862-3.148.586-.738 1.43-1.107 2.532-1.107h.369v2.426h-.703c-.774 0-1.372.211-1.794.634-.422.41-.633 1.008-.633 1.793v4.906h-2.813Zm7.682 0v-9.636h2.814v9.636h-2.814Zm-1.283-7.561v-2.075h4.097v2.075h-4.097Zm2.373-3.025c-.527 0-.92-.135-1.178-.404-.246-.282-.369-.633-.369-1.055 0-.434.123-.786.369-1.056.258-.28.651-.422 1.178-.422.528 0 .915.141 1.161.422.258.27.387.622.387 1.056 0 .422-.129.773-.387 1.055-.246.27-.633.404-1.161.404Zm8.845 10.921c-.844 0-1.595-.13-2.251-.387a5.035 5.035 0 0 1-1.67-1.09 4.736 4.736 0 0 1-1.02-1.566 5.097 5.097 0 0 1-.352-1.881V21.6c0-.668.117-1.301.352-1.899a4.758 4.758 0 0 1 1.055-1.6 5.005 5.005 0 0 1 1.688-1.073c.656-.27 1.389-.404 2.198-.404.832 0 1.571.135 2.215.404a4.815 4.815 0 0 1 1.671 1.073c.457.457.809.99 1.055 1.6.246.598.369 1.231.369 1.9v.404c0 .656-.117 1.283-.352 1.881a4.617 4.617 0 0 1-1.037 1.565 4.84 4.84 0 0 1-1.653 1.09c-.656.259-1.413.388-2.268.388Zm0-2.374c.551 0 1.008-.118 1.371-.352a2.21 2.21 0 0 0 .827-.985c.199-.422.299-.89.299-1.407 0-.55-.1-1.031-.299-1.442a2.401 2.401 0 0 0-.862-1.002c-.363-.246-.809-.37-1.336-.37-.516 0-.961.124-1.337.37a2.39 2.39 0 0 0-.861 1.002c-.188.41-.282.891-.282 1.442 0 .516.094.985.282 1.407.187.422.469.75.844.985.375.234.826.352 1.354.352Z"/>
  <path fill="#fff" d="M0 11.429C0 5.117 5.118 0 11.43 0h17.147c6.313 0 11.43 5.117 11.43 11.429V28.57C40.008 34.883 34.89 40 28.578 40H11.43C5.118 40 0 34.883 0 28.571V11.43Z"/>
  <path fill="#1B212C" d="M20.004 8.571c0 6.312 5.118 11.429 11.43 11.429 0-6.312-5.117-11.429-11.43-11.429Z"/>
  <path fill="#1B212C" d="M17.15 8.93C12.219 10.198 8.574 14.673 8.574 20c0 6.312 5.118 11.429 11.43 11.429 5.329 0 9.805-3.645 11.073-8.576-7.607-.188-13.738-6.318-13.925-13.923Z"/>
</svg>
