<svg xmlns="http://www.w3.org/2000/svg" width="149" height="40" fill="none" viewBox="0 0 149 40">
  <path fill="url(#a)" stroke="#252836" stroke-width="1.429" d="M11.429.714H28.57c5.918 0 10.715 4.797 10.715 10.715V28.57c0 5.918-4.797 10.715-10.715 10.715H11.43C5.51 39.286.714 34.489.714 28.57V11.43C.714 5.51 5.511.714 11.43.714Z"/>
  <g filter="url(#b)">
    <path fill="#E4E7F1" d="M20.058 8.571C20.058 14.883 25.19 20 31.52 20c0-6.312-5.132-11.429-11.462-11.429Zm-2.861.359c-4.945 1.268-8.6 5.743-8.6 11.07 0 6.312 5.131 11.429 11.461 11.429a11.46 11.46 0 0 0 11.102-8.576c-7.627-.188-13.775-6.318-13.963-13.923Z"/>
  </g>
  <path fill="#1B212C" d="M59.899 26.594V13.757h2.892v12.837h-2.892Zm-8.322 0V13.757h2.892v12.837h-2.892Zm2.38-5.187v-2.532h6.453v2.532h-6.453Zm15.812 5.522c-.823 0-1.552-.141-2.186-.422a4.672 4.672 0 0 1-1.57-1.126 5.404 5.404 0 0 1-.952-1.6 5.447 5.447 0 0 1-.317-1.83v-.35c0-.646.106-1.261.317-1.847a5.128 5.128 0 0 1 .952-1.6 4.335 4.335 0 0 1 1.534-1.108c.623-.282 1.329-.422 2.116-.422 1.035 0 1.904.234 2.61.703a4.512 4.512 0 0 1 1.64 1.811 5.27 5.27 0 0 1 .563 2.427v.95h-8.55v-1.6h6.84l-.917.738c0-.575-.082-1.067-.246-1.477-.165-.41-.412-.721-.741-.932-.317-.223-.717-.334-1.199-.334-.493 0-.91.111-1.252.334-.34.223-.6.55-.775.985-.177.422-.265.943-.265 1.565 0 .574.082 1.078.247 1.512.165.422.423.75.776.985.352.234.81.351 1.375.351.517 0 .94-.1 1.27-.299.329-.199.552-.445.67-.738H74.3a4.06 4.06 0 0 1-.829 1.723 4.2 4.2 0 0 1-1.551 1.178c-.623.282-1.34.423-2.151.423Zm6.401-.335v-9.636h2.239v4.15h-.16c0-.985.124-1.806.371-2.462.247-.657.617-1.149 1.11-1.477.495-.34 1.1-.51 1.817-.51h.123c.729 0 1.334.17 1.816.51.494.328.864.82 1.111 1.477.259.656.388 1.477.388 2.462h-.688c0-.985.124-1.806.37-2.462.26-.657.635-1.149 1.129-1.477.494-.34 1.099-.51 1.816-.51h.123c.73 0 1.34.17 1.834.51.505.328.887.82 1.146 1.477.259.656.388 1.477.388 2.462v5.486h-2.821V20.95c0-.528-.141-.956-.423-1.284-.27-.328-.658-.492-1.164-.492-.505 0-.905.17-1.199.51-.294.328-.44.767-.44 1.318v5.592h-2.84V20.95c0-.528-.14-.956-.422-1.284-.27-.328-.653-.492-1.146-.492-.517 0-.923.17-1.217.51-.294.328-.44.767-.44 1.318v5.592h-2.822Zm17.62 0v-9.636h2.82v9.636h-2.82Zm-1.287-7.561v-2.075h4.108v2.075h-4.108Zm2.38-3.025c-.529 0-.923-.135-1.181-.404-.247-.282-.37-.633-.37-1.055 0-.434.123-.786.37-1.056.258-.28.652-.422 1.18-.422.53 0 .918.141 1.165.422.258.27.387.622.387 1.056 0 .422-.129.773-.387 1.055-.247.27-.635.404-1.164.404Zm7.828 10.885c-1.375 0-2.451-.281-3.227-.844-.775-.562-1.187-1.354-1.234-2.374h2.504c.047.305.229.58.546.827.329.234.817.352 1.464.352.493 0 .899-.083 1.216-.247.329-.175.494-.422.494-.738 0-.282-.124-.504-.37-.668-.247-.176-.688-.3-1.323-.37l-.758-.07c-1.163-.117-2.04-.44-2.627-.967-.576-.528-.864-1.202-.864-2.023 0-.68.17-1.248.512-1.705.34-.458.81-.803 1.41-1.038.611-.234 1.305-.352 2.081-.352 1.245 0 2.25.276 3.014.827.764.54 1.164 1.325 1.199 2.356h-2.503c-.047-.316-.212-.58-.494-.791-.282-.223-.699-.334-1.252-.334-.435 0-.781.082-1.04.246-.259.164-.388.387-.388.668 0 .27.112.475.335.616.223.14.588.24 1.093.299l.758.07c1.188.129 2.11.457 2.768.985.659.527.988 1.237.988 2.128 0 .644-.177 1.207-.529 1.688-.353.469-.852.832-1.499 1.09-.646.246-1.404.37-2.274.37Zm6.165-.299V16.87c0-1.114.317-1.94.952-2.48.635-.539 1.569-.809 2.803-.809h1.234v2.11h-1.357c-.318 0-.564.088-.741.264-.176.176-.264.422-.264.739v9.9h-2.627Zm-1.146-7.385V17.15h6.276v2.058h-6.276Zm11.881 7.72c-.823 0-1.552-.141-2.186-.422a4.67 4.67 0 0 1-1.569-1.126 5.406 5.406 0 0 1-.953-1.6 5.459 5.459 0 0 1-.317-1.83v-.35c0-.646.106-1.261.317-1.847a5.126 5.126 0 0 1 .953-1.6 4.33 4.33 0 0 1 1.533-1.108c.623-.282 1.329-.422 2.116-.422 1.035 0 1.904.234 2.61.703a4.51 4.51 0 0 1 1.639 1.811c.376.739.564 1.548.564 2.427v.95h-8.551v-1.6h6.841l-.917.738c0-.575-.082-1.067-.246-1.477-.165-.41-.412-.721-.741-.932-.317-.223-.717-.334-1.199-.334-.493 0-.911.111-1.252.334-.34.223-.599.55-.775.985-.177.422-.265.943-.265 1.565 0 .574.082 1.078.247 1.512.165.422.423.75.776.985.352.234.811.351 1.375.351.517 0 .94-.1 1.269-.299.33-.199.553-.445.67-.738h2.592a4.052 4.052 0 0 1-.829 1.723 4.195 4.195 0 0 1-1.551 1.178c-.623.282-1.34.423-2.151.423Zm6.4-.335v-9.636h2.24v4.132h-.053c0-1.36.288-2.409.864-3.148.587-.738 1.434-1.107 2.538-1.107h.371v2.426h-.706c-.775 0-1.375.211-1.798.634-.423.41-.635 1.008-.635 1.793v4.906h-2.821Zm7.703 0v-9.636h2.821v9.636h-2.821Zm-1.287-7.561v-2.075h4.108v2.075h-4.108Zm2.381-3.025c-.529 0-.923-.135-1.182-.404-.247-.282-.37-.633-.37-1.055 0-.434.123-.786.37-1.056.259-.28.653-.422 1.182-.422.528 0 .916.141 1.163.422.259.27.388.622.388 1.056 0 .422-.129.773-.388 1.055-.247.27-.635.404-1.163.404Zm8.868 10.921c-.847 0-1.599-.13-2.257-.387a5.048 5.048 0 0 1-1.675-1.09 4.745 4.745 0 0 1-1.023-1.566 5.097 5.097 0 0 1-.352-1.881V21.6c0-.668.117-1.301.352-1.899.247-.61.6-1.143 1.058-1.6a5.027 5.027 0 0 1 1.693-1.073c.658-.27 1.393-.404 2.204-.404.834 0 1.575.134 2.221.404a4.833 4.833 0 0 1 1.675 1.073c.459.457.811.99 1.058 1.6.247.598.37 1.231.37 1.9v.404c0 .656-.117 1.283-.352 1.881a4.614 4.614 0 0 1-1.041 1.565 4.826 4.826 0 0 1-1.657 1.09c-.658.259-1.416.388-2.274.388Zm0-2.374c.552 0 1.011-.118 1.375-.352a2.22 2.22 0 0 0 .829-.985c.199-.422.299-.89.299-1.407 0-.55-.1-1.031-.299-1.442a2.399 2.399 0 0 0-.864-1.002c-.365-.246-.811-.37-1.34-.37-.518 0-.964.124-1.34.37-.376.246-.664.58-.864 1.002-.188.41-.282.891-.282 1.442 0 .516.094.985.282 1.407.188.422.47.75.846.985.376.234.829.352 1.358.352Z"/>
  <defs>
    <linearGradient id="a" x1="0" x2="40" y1="0" y2="40" gradientUnits="userSpaceOnUse">
      <stop stop-color="#101119"/>
      <stop offset=".75" stop-color="#252836"/>
    </linearGradient>
    <filter id="b" width="45.813" height="45.714" x=".009" y="0" color-interpolation-filters="sRGB" filterUnits="userSpaceOnUse">
      <feFlood flood-opacity="0" result="BackgroundImageFix"/>
      <feColorMatrix in="SourceAlpha" result="hardAlpha" values="0 0 0 0 0 0 0 0 0 0 0 0 0 0 0 0 0 0 127 0"/>
      <feOffset dx="1.429" dy="1.429"/>
      <feGaussianBlur stdDeviation="1.429"/>
      <feComposite in2="hardAlpha" operator="out"/>
      <feColorMatrix values="0 0 0 0 0.0313726 0 0 0 0 0.0392157 0 0 0 0 0.0509804 0 0 0 0.666667 0"/>
      <feBlend in2="BackgroundImageFix" result="effect1_dropShadow_328_14432"/>
      <feColorMatrix in="SourceAlpha" result="hardAlpha" values="0 0 0 0 0 0 0 0 0 0 0 0 0 0 0 0 0 0 127 0"/>
      <feOffset dx="2.857" dy="2.857"/>
      <feGaussianBlur stdDeviation="2.857"/>
      <feComposite in2="hardAlpha" operator="out"/>
      <feColorMatrix values="0 0 0 0 0.0313726 0 0 0 0 0.0392157 0 0 0 0 0.0509804 0 0 0 0.666667 0"/>
      <feBlend in2="effect1_dropShadow_328_14432" result="effect2_dropShadow_328_14432"/>
      <feBlend in="SourceGraphic" in2="effect2_dropShadow_328_14432" result="shape"/>
    </filter>
  </defs>
</svg>
