<svg xmlns="http://www.w3.org/2000/svg" width="149" height="40" fill="none" viewBox="0 0 149 40">
  <path fill="#E4E7F1" d="M59.727 26.595V13.757h2.883v12.838h-2.883Zm-8.298 0V13.757h2.883v12.838h-2.883Zm2.373-5.188v-2.532h6.434v2.532h-6.434Zm15.766 5.522c-.82 0-1.547-.141-2.18-.422a4.66 4.66 0 0 1-1.565-1.126 5.407 5.407 0 0 1-.949-1.6 5.459 5.459 0 0 1-.316-1.829V21.6c0-.645.105-1.26.316-1.846.223-.598.54-1.132.95-1.6.41-.47.92-.839 1.529-1.108.621-.282 1.324-.422 2.11-.422 1.03 0 1.898.234 2.601.703a4.506 4.506 0 0 1 1.635 1.811c.375.739.563 1.548.563 2.427v.95h-8.526v-1.6h6.82l-.913.738c0-.574-.082-1.067-.247-1.477-.164-.41-.41-.721-.738-.932-.316-.223-.715-.334-1.195-.334-.493 0-.909.111-1.249.334-.34.223-.597.55-.773.985-.176.422-.264.943-.264 1.565 0 .574.082 1.078.246 1.512.164.422.422.75.774.985.351.234.808.351 1.371.351.516 0 .938-.1 1.266-.298.328-.2.55-.446.668-.739h2.584a4.065 4.065 0 0 1-.826 1.723 4.19 4.19 0 0 1-1.547 1.179c-.621.28-1.336.422-2.145.422Zm6.382-.334v-9.637h2.233v4.15h-.158c0-.985.123-1.806.369-2.462.246-.657.615-1.149 1.107-1.477.493-.34 1.096-.51 1.811-.51h.123c.727 0 1.33.17 1.81.51.493.328.862.82 1.108 1.477.258.656.387 1.477.387 2.462h-.685c0-.985.123-1.806.369-2.462.258-.657.633-1.149 1.125-1.477.492-.34 1.096-.51 1.81-.51h.124c.726 0 1.336.17 1.828.51.504.328.885.82 1.143 1.477.258.656.387 1.477.387 2.462v5.486h-2.813V20.95c0-.528-.14-.956-.422-1.284-.27-.328-.656-.492-1.16-.492-.504 0-.903.17-1.196.51-.293.328-.44.767-.44 1.318v5.593h-2.83V20.95c0-.528-.14-.956-.422-1.284-.27-.328-.65-.492-1.143-.492-.515 0-.92.17-1.213.51-.293.328-.44.767-.44 1.318v5.593H75.95Zm17.57 0v-9.637h2.813v9.637H93.52Zm-1.283-7.562v-2.075h4.096v2.075h-4.096Zm2.373-3.025c-.528 0-.92-.135-1.178-.404-.246-.282-.37-.633-.37-1.055 0-.434.124-.786.37-1.056.258-.28.65-.421 1.178-.421.527 0 .914.14 1.16.421.258.27.387.622.387 1.056 0 .422-.13.773-.387 1.055-.246.27-.633.404-1.16.404Zm7.805 10.885c-1.371 0-2.444-.28-3.217-.844-.773-.562-1.184-1.354-1.23-2.374h2.496c.047.305.228.58.545.827.328.234.814.352 1.459.352.492 0 .897-.082 1.213-.247.328-.175.492-.422.492-.738a.765.765 0 0 0-.369-.668c-.246-.176-.686-.3-1.318-.37l-.756-.07c-1.161-.117-2.034-.44-2.62-.967-.574-.528-.861-1.202-.861-2.023 0-.68.17-1.248.51-1.705.34-.458.808-.803 1.406-1.038.609-.234 1.301-.352 2.074-.352 1.243 0 2.245.276 3.007.827.761.54 1.16 1.325 1.195 2.356h-2.496c-.047-.316-.211-.58-.493-.791-.281-.223-.697-.334-1.248-.334-.433 0-.779.082-1.037.246-.258.164-.387.387-.387.668 0 .27.112.475.334.616.223.14.586.24 1.09.299l.756.07c1.184.13 2.104.457 2.76.985.657.527.985 1.237.985 2.128 0 .645-.176 1.207-.528 1.688-.351.469-.849.832-1.494 1.09-.645.246-1.401.37-2.268.37Zm6.147-.298V16.87c0-1.114.317-1.94.95-2.48.633-.539 1.564-.809 2.795-.809h1.231v2.11h-1.354c-.317 0-.563.089-.738.264-.176.176-.264.423-.264.739v9.9h-2.62Zm-1.142-7.386V17.15h6.258v2.058h-6.258Zm11.847 7.72c-.821 0-1.547-.141-2.18-.422a4.663 4.663 0 0 1-1.565-1.126 5.395 5.395 0 0 1-.949-1.6 5.46 5.46 0 0 1-.317-1.829V21.6c0-.645.106-1.26.317-1.846a5.114 5.114 0 0 1 .949-1.6 4.32 4.32 0 0 1 1.53-1.108c.621-.282 1.324-.422 2.109-.422 1.032 0 1.899.234 2.602.703a4.506 4.506 0 0 1 1.635 1.811c.375.739.563 1.548.563 2.427v.95h-8.527v-1.6h6.821l-.914.738c0-.574-.082-1.067-.246-1.477-.164-.41-.41-.721-.738-.932-.317-.223-.715-.334-1.196-.334-.492 0-.908.111-1.248.334-.34.223-.598.55-.773.985-.176.422-.264.943-.264 1.565 0 .574.082 1.078.246 1.512.164.422.422.75.773.985.352.234.809.351 1.372.351.515 0 .937-.1 1.266-.298.328-.2.55-.446.668-.739h2.584a4.07 4.07 0 0 1-.826 1.723 4.197 4.197 0 0 1-1.547 1.179c-.622.28-1.337.422-2.145.422Zm6.382-.334v-9.637h2.232v4.132h-.052c0-1.36.287-2.409.861-3.147.586-.739 1.43-1.108 2.532-1.108h.369v2.427h-.703c-.774 0-1.372.21-1.793.633-.422.41-.633 1.008-.633 1.793v4.907h-2.813Zm7.681 0v-9.637h2.812v9.637h-2.812Zm-1.284-7.562v-2.075h4.096v2.075h-4.096Zm2.374-3.025c-.528 0-.92-.135-1.178-.404-.246-.282-.369-.633-.369-1.055 0-.434.123-.786.369-1.056.258-.28.65-.421 1.178-.421.527 0 .914.14 1.16.421.258.27.387.622.387 1.056 0 .422-.129.773-.387 1.055-.246.27-.633.404-1.16.404Zm8.842 10.921c-.844 0-1.594-.13-2.25-.387a5.034 5.034 0 0 1-1.67-1.09 4.754 4.754 0 0 1-1.02-1.566 5.117 5.117 0 0 1-.351-1.881V21.6c0-.668.117-1.301.351-1.899a4.758 4.758 0 0 1 1.055-1.6 5.006 5.006 0 0 1 1.688-1.073c.656-.27 1.388-.404 2.197-.404.832 0 1.571.135 2.215.404a4.813 4.813 0 0 1 1.67 1.073c.458.457.809.99 1.055 1.6.246.598.369 1.231.369 1.9v.404c0 .656-.117 1.284-.351 1.881a4.634 4.634 0 0 1-1.037 1.566c-.446.457-.997.82-1.653 1.09-.656.258-1.412.387-2.268.387Zm0-2.374c.551 0 1.008-.118 1.371-.352a2.21 2.21 0 0 0 .827-.985c.199-.422.299-.89.299-1.407 0-.55-.1-1.031-.299-1.442a2.402 2.402 0 0 0-.862-1.002c-.363-.246-.808-.37-1.336-.37-.515 0-.961.124-1.336.37a2.39 2.39 0 0 0-.861 1.002c-.188.41-.282.891-.282 1.442 0 .516.094.985.282 1.407.187.422.468.75.844.985.375.234.826.352 1.353.352Z"/>
  <path fill="#fff" d="M0 11.429C0 5.117 5.117 0 11.429 0H28.57C34.883 0 40 5.117 40 11.429V28.57C40 34.883 34.883 40 28.571 40H11.43C5.117 40 0 34.883 0 28.571V11.43Z"/>
  <g filter="url(#a)">
    <path fill="#1B212C" d="M20 8.571C20 14.883 25.117 20 31.429 20c0-6.312-5.117-11.429-11.429-11.429Z"/>
    <path fill="#1B212C" d="M17.147 8.93C12.216 10.198 8.571 14.673 8.571 20c0 6.312 5.117 11.428 11.429 11.428 5.327 0 9.802-3.644 11.07-8.575-7.605-.188-13.735-6.318-13.923-13.923Z"/>
  </g>
  <defs>
    <filter id="a" width="45.714" height="45.714" x="0" y="0" color-interpolation-filters="sRGB" filterUnits="userSpaceOnUse">
      <feFlood flood-opacity="0" result="BackgroundImageFix"/>
      <feColorMatrix in="SourceAlpha" result="hardAlpha" values="0 0 0 0 0 0 0 0 0 0 0 0 0 0 0 0 0 0 127 0"/>
      <feOffset dx="1.429" dy="1.429"/>
      <feGaussianBlur stdDeviation="1.429"/>
      <feComposite in2="hardAlpha" operator="out"/>
      <feColorMatrix values="0 0 0 0 0.878431 0 0 0 0 0.890196 0 0 0 0 0.929412 0 0 0 0.239216 0"/>
      <feBlend in2="BackgroundImageFix" result="effect1_dropShadow_205_1514"/>
      <feColorMatrix in="SourceAlpha" result="hardAlpha" values="0 0 0 0 0 0 0 0 0 0 0 0 0 0 0 0 0 0 127 0"/>
      <feOffset dx="2.857" dy="2.857"/>
      <feGaussianBlur stdDeviation="2.857"/>
      <feComposite in2="hardAlpha" operator="out"/>
      <feColorMatrix values="0 0 0 0 0.878431 0 0 0 0 0.890196 0 0 0 0 0.929412 0 0 0 0.239216 0"/>
      <feBlend in2="effect1_dropShadow_205_1514" result="effect2_dropShadow_205_1514"/>
      <feBlend in="SourceGraphic" in2="effect2_dropShadow_205_1514" result="shape"/>
    </filter>
  </defs>
</svg>
